HIERARCHY
ROOT Hips
{
    OFFSET 0.000000 0.000000 0.000000
    CHANNELS 6 Xposition Yposition Zposition Zrotation Xrotation Yrotation
    JOINT Spine
    {
        OFFSET -0.000000 7.246840 0.000000
        CHANNELS 3 Zrotation Xrotation Yrotation
        JOINT Spine1
        {
            OFFSET -0.000000 20.289354 0.000000
            CHANNELS 3 Zrotation Xrotation Yrotation
            JOINT Neck
            {
                OFFSET -0.000000 20.206032 1.836912
                CHANNELS 3 Zrotation Xrotation Yrotation
                JOINT Head
                {
                    OFFSET -0.000000 12.372654 -1.767522
                    CHANNELS 3 Zrotation Xrotation Yrotation
                    End Site
                    {
                        OFFSET -0.000000 22.094025 0.000000
                    }
                }
            }
            JOINT LeftShoulder
            {
                OFFSET 3.465871 17.201674 -0.568930
                CHANNELS 3 Zrotation Xrotation Yrotation
                JOINT LeftArm
                {
                    OFFSET 14.070313 0.000000 0.000000
                    CHANNELS 3 Zrotation Xrotation Yrotation
                    JOINT LeftForeArm
                    {
                        OFFSET 26.549477 0.000000 0.000000
                        CHANNELS 3 Zrotation Xrotation Yrotation
                        JOINT LeftHand
                        {
                            OFFSET 18.880413 0.000000 0.000000
                            CHANNELS 3 Zrotation Xrotation Yrotation
                            End Site
                            {
                                OFFSET 13.256415 0.000000 0.000000
                            }
                        }
                    }
                }
            }
            JOINT RightShoulder
            {
                OFFSET -3.526370 17.201674 -0.568930
                CHANNELS 3 Zrotation Xrotation Yrotation
                JOINT RightArm
                {
                    OFFSET -14.070313 0.000000 0.000000
                    CHANNELS 3 Zrotation Xrotation Yrotation
                    JOINT RightForeArm
                    {
                        OFFSET -26.549477 0.000000 0.000000
                        CHANNELS 3 Zrotation Xrotation Yrotation
                        JOINT RightHand
                        {
                            OFFSET -18.880413 0.000000 0.000000
                            CHANNELS 3 Zrotation Xrotation Yrotation
                            End Site
                            {
                                OFFSET -13.256415 0.000000 0.000000
                            }
                        }
                    }
                }
            }
        }
    }
    JOINT LeftUpLeg
    {
        OFFSET 8.837609 0.000000 0.000000
        CHANNELS 3 Zrotation Xrotation Yrotation
        JOINT LeftLeg
        {
            OFFSET -0.000000 -41.345005 0.000000
            CHANNELS 3 Zrotation Xrotation Yrotation
            JOINT LeftFoot
            {
                OFFSET -0.000000 -35.500874 0.000000
                CHANNELS 3 Zrotation Xrotation Yrotation
                JOINT LeftToeBase
                {
                    OFFSET -0.000000 -5.744446 13.256415
                    CHANNELS 3 Zrotation Xrotation Yrotation
                    End Site
                    {
                        OFFSET -0.000000 0.000000 3.535044
                    }
                }
            }
        }
    }
    JOINT RightUpLeg
    {
        OFFSET -8.837609 0.000000 0.000000
        CHANNELS 3 Zrotation Xrotation Yrotation
        JOINT RightLeg
        {
            OFFSET -0.000000 -41.345005 0.000000
            CHANNELS 3 Zrotation Xrotation Yrotation
            JOINT RightFoot
            {
                OFFSET -0.000000 -35.500874 0.000000
                CHANNELS 3 Zrotation Xrotation Yrotation
                JOINT RightToeBase
                {
                    OFFSET -0.000000 -5.744446 13.256415
                    CHANNELS 3 Zrotation Xrotation Yrotation
                    End Site
                    {
                        OFFSET -0.000000 0.000000 3.535044
                    }
                }
            }
        }
    }
}
MOTION
Frames:    11
Frame Time:    0.010000
18.181103    80.436691    19.901674    2.945966    -1.241133    14.568687    -5.645248    1.265397    4.260613    -7.426368    10.986537    4.913427    14.401904    18.144724    -12.966988    11.383585    -33.450542    -8.394155    9.445251    10.019772    5.848845    -72.884857    39.479042    15.222082    -9.601379    -24.815948    -33.745262    -29.576340    -26.020807    -5.999214    -10.169023    -7.052539    15.228314    27.317663    -14.891167    41.719574    -10.729123    -35.379551    67.334473    -13.641275    -29.850096    5.089976    -6.555195    -7.753740    -1.922688    1.885012    31.025375    -12.057156    12.186732    -8.279538    -0.937033    -0.362317    -7.540061    0.532462    -8.536223    -23.285133    -15.511709    -8.379131    48.985592    12.711960    14.025002    -1.407169    1.327574    -1.736861    -11.843826    3.604327    
18.348148    79.081322    19.740448    3.827860    -1.761920    15.262721    -6.172249    1.918338    3.872904    -7.478453    11.778371    4.541967    13.785765    17.537985    -12.831123    12.194385    -33.862316    -7.955221    9.087457    8.484411    6.029744    -73.014442    39.607803    13.682312    -9.334858    -25.045942    -33.056206    -30.928753    -25.865877    -6.745038    -9.742385    -6.328942    15.574698    28.974440    -14.349462    41.132763    -9.955194    -34.867908    69.967323    -13.211057    -29.479118    5.381187    -7.893851    -8.053782    -1.268637    2.636928    33.877876    -12.769697    13.436960    -11.025992    0.274019    -0.612320    -6.310822    0.892307    -9.602560    -23.371222    -14.541930    -8.569757    52.004276    13.983128    14.509437    -5.044199    0.648034    -1.641331    -12.138926    3.420543    
18.620583    77.831474    19.612581    4.883367    -2.196920    15.739017    -6.849998    2.192437    3.592747    -7.379828    12.841274    4.293139    12.695340    17.180428    -12.725264    13.730940    -34.123459    -7.209553    8.523890    6.680641    5.724625    -73.854942    40.577042    12.865961    -8.635918    -25.932957    -32.657829    -32.229946    -26.320995    -7.267532    -9.302545    -5.243279    16.170916    30.628313    -14.148614    40.306412    -9.341323    -33.976067    72.578888    -12.872577    -28.592793    5.147961    -9.494633    -8.175019    -1.254734    3.622139    36.226074    -14.553078    15.065540    -13.057515    2.299009    -1.012634    -5.540353    1.468023    -10.841390    -23.438566    -13.070230    -8.201962    54.718105    14.441488    15.136672    -8.241924    0.202253    -1.668575    -12.442918    3.492520    
18.860407    76.793076    19.420313    5.940403    -2.349109    16.049217    -7.763647    2.176165    3.372770    -7.032841    14.009470    4.090311    11.147816    16.659761    -12.548932    15.797049    -34.254665    -6.180156    7.834375    4.847319    5.666067    -74.188820    41.328060    11.186685    -7.586106    -26.444641    -31.759390    -33.850510    -26.379179    -7.331314    -9.048533    -3.701082    16.539810    32.329643    -14.024632    39.879433    -9.148461    -33.139702    74.582413    -11.651651    -27.579422    5.327454    -11.097530    -8.673908    -1.455777    4.453568    38.523617    -15.406150    14.942888    -15.310728    3.918816    0.630783    -4.099892    -0.905855    -11.995730    -23.875219    -11.948602    -8.318792    57.110405    14.735803    15.346356    -10.578920    0.102030    -1.766530    -12.872149    3.720549    
19.046490    75.991028    19.263697    6.616953    -2.341546    16.164162    -8.332751    1.509154    3.256422    -7.136829    15.820494    4.139378    10.757421    15.611036    -12.324317    16.841545    -34.315609    -5.589593    7.852543    3.962815    6.252405    -73.326355    41.304443    6.628282    -6.218025    -26.785309    -29.891790    -36.529716    -26.054346    -7.494947    -8.367158    -2.517962    16.506802    34.262718    -13.562160    39.451923    -8.921604    -32.092632    76.316498    -10.464829    -26.392714    5.431623    -12.191238    -9.430829    -2.173083    4.473652    40.840179    -15.651426    16.126770    -16.647652    5.400550    0.422334    -3.772180    -0.605229    -12.627725    -24.541910    -11.091600    -9.002136    59.023716    15.497892    15.516831    -12.175523    0.107148    -1.618503    -12.805500    3.405623    
19.211134    75.368492    19.174255    7.140050    -2.587492    16.113867    -8.741500    0.752894    3.361046    -7.244519    17.942213    4.448688    10.529161    14.329268    -12.278453    17.592815    -33.995255    -5.388164    7.956545    3.196515    6.177322    -72.891609    40.267757    2.120795    -4.351593    -27.117460    -27.905022    -39.099216    -25.677914    -7.559343    -7.684394    -1.190618    16.183098    36.212055    -12.826829    38.907669    -8.536680    -30.931305    77.882568    -10.185637    -25.269035    5.583329    -12.896692    -9.950967    -2.857084    3.955516    43.065319    -15.670554    17.388706    -17.581068    7.143587    0.231498    -3.705866    -0.331609    -12.886723    -25.010521    -10.359119    -10.134892    60.704624    16.939493    15.591389    -13.304033    -0.247415    -1.464801    -12.975828    3.090016    
19.343838    74.872925    19.139904    7.535500    -3.225720    15.939191    -8.882880    0.427388    3.603592    -7.681086    20.067730    4.931462    10.743176    12.601010    -12.165656    17.866211    -33.473488    -5.410583    8.170077    2.757442    6.484684    -72.404266    37.402397    -3.215828    -2.643188    -26.614166    -25.637007    -40.870293    -24.655888    -7.432013    -6.656662    -0.947218    15.506863    38.389336    -10.707195    37.672295    -7.749252    -29.919851    79.616531    -10.165187    -24.591112    5.381042    -13.205329    -10.018849    -3.293764    3.045151    44.996723    -15.135091    18.423357    -18.260433    8.462440    0.223381    -3.691063    -0.319952    -12.795758    -25.203238    -9.564309    -11.500916    62.353855    18.699856    15.549923    -14.102600    -0.862747    -1.375555    -13.158792    2.909621    
19.520172    74.490829    19.154812    7.882636    -4.002991    15.464123    -8.980868    0.462879    3.971272    -7.143937    20.796022    5.247471    9.062181    13.422167    -12.391669    19.715717    -34.047150    -4.622119    6.880839    2.878968    5.567674    -71.924271    35.565865    -6.857591    -1.365709    -26.542574    -25.016390    -40.669674    -24.451851    -7.057537    -6.933985    -0.436796    15.504930    41.631145    -8.020253    35.544399    -6.670780    -29.075424    81.185104    -9.969915    -24.386915    5.462971    -13.312583    -9.785188    -3.151288    2.150519    46.415363    -14.257534    20.370123    -18.144766    8.380757    -1.349160    -4.686343    1.944842    -12.537592    -25.377666    -8.383573    -12.594963    64.004860    19.920532    15.522167    -14.482261    -1.267504    -1.229219    -13.381411    2.608738    
19.669369    74.201981    19.160656    8.186217    -4.779130    14.923830    -8.543542    0.726062    4.231575    -9.166874    21.972054    5.960548    11.092865    11.831196    -11.930866    18.568504    -33.681911    -4.920468    8.226367    1.542463    6.360501    -73.381401    34.693066    -10.081114    0.104811    -25.337135    -24.059158    -38.684418    -23.250128    -6.451840    -4.569795    -1.099259    14.833383    43.702053    -3.974305    32.983955    -4.835792    -28.860746    82.375206    -9.092204    -25.553526    6.507668    -13.250162    -9.465573    -2.590549    1.545071    47.417877    -13.829047    20.883974    -18.321377    8.550151    -1.491884    -4.880437    2.153299    -12.299851    -25.618359    -7.299159    -13.469561    65.582756    20.926752    15.410599    -14.424130    -1.650343    -1.106900    -13.750041    2.362132    
19.833294    74.001183    19.178284    8.439323    -5.510048    14.323647    -8.909086    1.155775    4.724552    -6.862373    21.513884    5.939765    6.719528    13.330548    -12.703453    21.689480    -33.724129    -4.086176    5.529480    1.388465    4.873915    -72.122040    34.842514    -12.781497    -0.361758    -25.266424    -24.658756    -35.584702    -23.352583    -6.781258    -7.273743    -0.721341    13.804846    48.741161    0.485847    30.890015    -3.399850    -29.393433    82.587021    -6.543870    -27.147518    7.665069    -13.164111    -8.985370    -1.927481    0.996361    47.942238    -13.028264    20.771921    -18.550093    8.204938    -1.318200    -4.983000    1.903924    -12.052917    -25.882874    -6.388436    -14.619710    66.943649    21.913961    15.152523    -14.044067    -1.715763    -0.958783    -13.873335    2.049893    
19.997179    73.899139    19.183231    8.721993    -6.006185    13.801293    -9.078626    1.390113    4.624953    -6.978674    21.074337    5.814260    6.347977    14.541006    -12.428402    22.251049    -33.918179    -3.431707    5.273317    1.120307    4.969889    -72.495033    34.326832    -15.473364    0.008939    -23.334362    -24.558132    -33.157822    -21.381004    -7.077939    -6.356104    -0.311992    14.038342    51.112968    4.585947    28.153309    -0.952591    -30.061743    82.097633    -3.657129    -29.612572    9.785531    -13.176627    -8.664049    -0.867636    1.012939    48.269398    -13.222718    21.318077    -18.300400    7.814989    -1.817462    -5.363180    2.631518    -11.948175    -26.312994    -6.015338    -16.647295    67.951469    23.206234    15.330044    -13.119061    -1.217960    -0.873652    -14.194980    1.876994    
